<mxfile host="app.diagrams.net" modified="2022-03-10T10:43:57.098Z" agent="5.0 (Macintosh; Intel Mac OS X 10_15_7) AppleWebKit/537.36 (KHTML, like Gecko) Chrome/98.0.4758.109 Safari/537.36" etag="MVTX7YSU1hybWgEVeYL7" version="17.1.0" type="github">
  <diagram id="YsNXJy2RDm9mWr69WWs2" name="Page-1">
    <mxGraphModel dx="2066" dy="2300" grid="1" gridSize="10" guides="1" tooltips="1" connect="1" arrows="1" fold="1" page="1" pageScale="1" pageWidth="827" pageHeight="1169" math="0" shadow="0">
      <root>
        <mxCell id="0" />
        <mxCell id="1" parent="0" />
        <mxCell id="8xYVwYf3wzO2rZaNu7Fs-1" value="" style="shape=umlLifeline;participant=umlActor;perimeter=lifelinePerimeter;whiteSpace=wrap;html=1;container=1;collapsible=0;recursiveResize=0;verticalAlign=top;spacingTop=36;outlineConnect=0;" parent="1" vertex="1">
          <mxGeometry x="124" y="-240" width="36" height="960" as="geometry" />
        </mxCell>
        <mxCell id="8xYVwYf3wzO2rZaNu7Fs-6" value="&lt;font style=&quot;font-size: 18px&quot;&gt;浏览器&lt;/font&gt;" style="shape=umlLifeline;perimeter=lifelinePerimeter;whiteSpace=wrap;html=1;container=1;collapsible=0;recursiveResize=0;outlineConnect=0;fillColor=#dae8fc;strokeColor=#6c8ebf;" parent="1" vertex="1">
          <mxGeometry x="316" y="-240" width="84" height="960" as="geometry" />
        </mxCell>
        <mxCell id="8xYVwYf3wzO2rZaNu7Fs-10" value="" style="html=1;points=[];perimeter=orthogonalPerimeter;fontSize=18;" parent="8xYVwYf3wzO2rZaNu7Fs-6" vertex="1">
          <mxGeometry x="40" y="90" width="10" height="50" as="geometry" />
        </mxCell>
        <mxCell id="8xYVwYf3wzO2rZaNu7Fs-26" value="" style="html=1;points=[];perimeter=orthogonalPerimeter;fontSize=14;" parent="8xYVwYf3wzO2rZaNu7Fs-6" vertex="1">
          <mxGeometry x="40" y="234" width="10" height="36" as="geometry" />
        </mxCell>
        <mxCell id="8xYVwYf3wzO2rZaNu7Fs-27" value="" style="html=1;points=[];perimeter=orthogonalPerimeter;fontSize=14;" parent="8xYVwYf3wzO2rZaNu7Fs-6" vertex="1">
          <mxGeometry x="40" y="296" width="10" height="40" as="geometry" />
        </mxCell>
        <mxCell id="8xYVwYf3wzO2rZaNu7Fs-28" value="3.生成二维码图片&lt;br&gt;携带QRID和jumpLink" style="edgeStyle=orthogonalEdgeStyle;html=1;align=left;spacingLeft=2;endArrow=block;rounded=0;entryX=1;entryY=0;fontSize=14;" parent="8xYVwYf3wzO2rZaNu7Fs-6" target="8xYVwYf3wzO2rZaNu7Fs-27" edge="1">
          <mxGeometry relative="1" as="geometry">
            <mxPoint x="46" y="271" as="sourcePoint" />
            <Array as="points">
              <mxPoint x="76" y="271" />
            </Array>
          </mxGeometry>
        </mxCell>
        <mxCell id="spcbuX4xW0JJ_jfzzLsI-5" value="&lt;font color=&quot;#1a1a1a&quot;&gt;4.2.获取用户信息&lt;/font&gt;" style="html=1;verticalAlign=bottom;endArrow=block;rounded=0;fontSize=14;fontColor=#FF3333;" edge="1" parent="8xYVwYf3wzO2rZaNu7Fs-6" target="8xYVwYf3wzO2rZaNu7Fs-7">
          <mxGeometry width="80" relative="1" as="geometry">
            <mxPoint x="44" y="490" as="sourcePoint" />
            <mxPoint x="124" y="490" as="targetPoint" />
          </mxGeometry>
        </mxCell>
        <mxCell id="8xYVwYf3wzO2rZaNu7Fs-7" value="&lt;font style=&quot;font-size: 18px&quot;&gt;服务器&lt;/font&gt;" style="shape=umlLifeline;perimeter=lifelinePerimeter;whiteSpace=wrap;html=1;container=1;collapsible=0;recursiveResize=0;outlineConnect=0;fillColor=#e1d5e7;strokeColor=#9673a6;" parent="1" vertex="1">
          <mxGeometry x="556" y="-240" width="84" height="950" as="geometry" />
        </mxCell>
        <mxCell id="8xYVwYf3wzO2rZaNu7Fs-21" value="" style="html=1;points=[];perimeter=orthogonalPerimeter;fontSize=14;" parent="8xYVwYf3wzO2rZaNu7Fs-7" vertex="1">
          <mxGeometry x="39" y="188" width="10" height="40" as="geometry" />
        </mxCell>
        <mxCell id="8xYVwYf3wzO2rZaNu7Fs-22" value="2.生成QRID&lt;br&gt;&amp;amp;&lt;br&gt;绑定设备" style="edgeStyle=orthogonalEdgeStyle;html=1;align=left;spacingLeft=2;endArrow=block;rounded=0;entryX=1;entryY=0;fontSize=14;" parent="8xYVwYf3wzO2rZaNu7Fs-7" target="8xYVwYf3wzO2rZaNu7Fs-21" edge="1">
          <mxGeometry relative="1" as="geometry">
            <mxPoint x="44" y="168" as="sourcePoint" />
            <Array as="points">
              <mxPoint x="74" y="168" />
            </Array>
          </mxGeometry>
        </mxCell>
        <mxCell id="spcbuX4xW0JJ_jfzzLsI-6" value="" style="html=1;points=[];perimeter=orthogonalPerimeter;fontSize=14;fontColor=#1A1A1A;" vertex="1" parent="8xYVwYf3wzO2rZaNu7Fs-7">
          <mxGeometry x="39" y="910" width="10" height="40" as="geometry" />
        </mxCell>
        <mxCell id="8xYVwYf3wzO2rZaNu7Fs-8" value="&lt;font style=&quot;font-size: 18px&quot;&gt;APP&lt;/font&gt;" style="shape=umlLifeline;perimeter=lifelinePerimeter;whiteSpace=wrap;html=1;container=1;collapsible=0;recursiveResize=0;outlineConnect=0;fillColor=#d5e8d4;strokeColor=#82b366;" parent="1" vertex="1">
          <mxGeometry x="736" y="-240" width="90" height="880" as="geometry" />
        </mxCell>
        <mxCell id="8xYVwYf3wzO2rZaNu7Fs-31" value="" style="html=1;points=[];perimeter=orthogonalPerimeter;fontSize=14;" parent="8xYVwYf3wzO2rZaNu7Fs-8" vertex="1">
          <mxGeometry x="40" y="529" width="10" height="31" as="geometry" />
        </mxCell>
        <mxCell id="8xYVwYf3wzO2rZaNu7Fs-33" value="" style="html=1;points=[];perimeter=orthogonalPerimeter;fontSize=14;" parent="8xYVwYf3wzO2rZaNu7Fs-8" vertex="1">
          <mxGeometry x="40" y="580" width="10" height="40" as="geometry" />
        </mxCell>
        <mxCell id="8xYVwYf3wzO2rZaNu7Fs-34" value="获取QRID" style="edgeStyle=orthogonalEdgeStyle;html=1;align=left;spacingLeft=2;endArrow=block;rounded=0;entryX=1;entryY=0;fontSize=14;" parent="8xYVwYf3wzO2rZaNu7Fs-8" target="8xYVwYf3wzO2rZaNu7Fs-33" edge="1">
          <mxGeometry relative="1" as="geometry">
            <mxPoint x="45" y="560" as="sourcePoint" />
            <Array as="points">
              <mxPoint x="75" y="560" />
            </Array>
          </mxGeometry>
        </mxCell>
        <mxCell id="8xYVwYf3wzO2rZaNu7Fs-40" value="" style="html=1;points=[];perimeter=orthogonalPerimeter;fontSize=14;fontColor=#1A1A1A;" parent="8xYVwYf3wzO2rZaNu7Fs-8" vertex="1">
          <mxGeometry x="40" y="681" width="10" height="30" as="geometry" />
        </mxCell>
        <mxCell id="8xYVwYf3wzO2rZaNu7Fs-47" value="" style="html=1;points=[];perimeter=orthogonalPerimeter;fontSize=14;fontColor=#1A1A1A;" parent="8xYVwYf3wzO2rZaNu7Fs-8" vertex="1">
          <mxGeometry x="40" y="855" width="10" height="55" as="geometry" />
        </mxCell>
        <mxCell id="8xYVwYf3wzO2rZaNu7Fs-11" value="" style="html=1;verticalAlign=bottom;startArrow=oval;endArrow=block;startSize=8;rounded=0;fontSize=18;exitX=1.1;exitY=0.98;exitDx=0;exitDy=0;exitPerimeter=0;" parent="1" target="8xYVwYf3wzO2rZaNu7Fs-10" edge="1">
          <mxGeometry relative="1" as="geometry">
            <mxPoint x="148" y="-150.98000000000002" as="sourcePoint" />
          </mxGeometry>
        </mxCell>
        <mxCell id="8xYVwYf3wzO2rZaNu7Fs-16" value="" style="html=1;points=[];perimeter=orthogonalPerimeter;fontSize=14;" parent="1" vertex="1">
          <mxGeometry x="596" y="-103" width="10" height="30" as="geometry" />
        </mxCell>
        <mxCell id="8xYVwYf3wzO2rZaNu7Fs-17" value="1.发送二维码请求" style="html=1;verticalAlign=bottom;startArrow=oval;endArrow=block;startSize=8;rounded=0;fontSize=14;" parent="1" target="8xYVwYf3wzO2rZaNu7Fs-16" edge="1">
          <mxGeometry relative="1" as="geometry">
            <mxPoint x="370" y="-100" as="sourcePoint" />
          </mxGeometry>
        </mxCell>
        <mxCell id="8xYVwYf3wzO2rZaNu7Fs-18" value="req:设备信息deviceId" style="text;html=1;align=center;verticalAlign=middle;resizable=0;points=[];autosize=1;strokeColor=none;fillColor=none;fontSize=14;" parent="1" vertex="1">
          <mxGeometry x="397" y="-91" width="150" height="20" as="geometry" />
        </mxCell>
        <mxCell id="8xYVwYf3wzO2rZaNu7Fs-23" value="二维码ID" style="html=1;verticalAlign=bottom;endArrow=open;dashed=1;endSize=8;rounded=0;fontSize=14;" parent="1" target="8xYVwYf3wzO2rZaNu7Fs-6" edge="1">
          <mxGeometry relative="1" as="geometry">
            <mxPoint x="590" y="-10" as="sourcePoint" />
            <mxPoint x="510" y="-10" as="targetPoint" />
          </mxGeometry>
        </mxCell>
        <mxCell id="8xYVwYf3wzO2rZaNu7Fs-29" value="展示二维码" style="html=1;verticalAlign=bottom;endArrow=open;dashed=1;endSize=8;rounded=0;fontSize=14;" parent="1" edge="1">
          <mxGeometry relative="1" as="geometry">
            <mxPoint x="360" y="98" as="sourcePoint" />
            <mxPoint x="141.5" y="98" as="targetPoint" />
          </mxGeometry>
        </mxCell>
        <mxCell id="8xYVwYf3wzO2rZaNu7Fs-32" value="" style="html=1;verticalAlign=bottom;startArrow=oval;endArrow=block;startSize=8;rounded=0;fontSize=14;" parent="1" target="8xYVwYf3wzO2rZaNu7Fs-31" edge="1">
          <mxGeometry relative="1" as="geometry">
            <mxPoint x="141" y="289" as="sourcePoint" />
          </mxGeometry>
        </mxCell>
        <mxCell id="8xYVwYf3wzO2rZaNu7Fs-35" value="" style="html=1;points=[];perimeter=orthogonalPerimeter;fontSize=14;fontColor=#99FFFF;" parent="1" vertex="1">
          <mxGeometry x="597" y="381" width="10" height="60" as="geometry" />
        </mxCell>
        <mxCell id="8xYVwYf3wzO2rZaNu7Fs-36" value="&lt;font color=&quot;#1a1a1a&quot;&gt;QRID校验&amp;nbsp;&lt;/font&gt;" style="html=1;verticalAlign=bottom;endArrow=block;entryX=1;entryY=0;rounded=0;fontSize=14;fontColor=#99FFFF;" parent="1" target="8xYVwYf3wzO2rZaNu7Fs-35" edge="1">
          <mxGeometry relative="1" as="geometry">
            <mxPoint x="779" y="381" as="sourcePoint" />
          </mxGeometry>
        </mxCell>
        <mxCell id="8xYVwYf3wzO2rZaNu7Fs-37" value="&lt;span style=&quot;color: rgb(26 , 26 , 26)&quot;&gt;是否有效,是否过期&lt;/span&gt;" style="html=1;verticalAlign=bottom;endArrow=open;dashed=1;endSize=8;exitX=1;exitY=0.95;rounded=0;fontSize=14;fontColor=#99FFFF;" parent="1" source="8xYVwYf3wzO2rZaNu7Fs-35" edge="1">
          <mxGeometry relative="1" as="geometry">
            <mxPoint x="779" y="438" as="targetPoint" />
          </mxGeometry>
        </mxCell>
        <mxCell id="8xYVwYf3wzO2rZaNu7Fs-43" value="" style="html=1;points=[];perimeter=orthogonalPerimeter;fontSize=14;fontColor=#1A1A1A;" parent="1" vertex="1">
          <mxGeometry x="777" y="491" width="10" height="40" as="geometry" />
        </mxCell>
        <mxCell id="8xYVwYf3wzO2rZaNu7Fs-44" value="过期提示已过期,否则提醒用户确认" style="edgeStyle=orthogonalEdgeStyle;html=1;align=left;spacingLeft=2;endArrow=block;rounded=0;entryX=1;entryY=0;fontSize=14;fontColor=#1A1A1A;" parent="1" target="8xYVwYf3wzO2rZaNu7Fs-43" edge="1">
          <mxGeometry relative="1" as="geometry">
            <mxPoint x="782" y="471" as="sourcePoint" />
            <Array as="points">
              <mxPoint x="812" y="471" />
            </Array>
          </mxGeometry>
        </mxCell>
        <mxCell id="8xYVwYf3wzO2rZaNu7Fs-45" value="确认提示框" style="html=1;verticalAlign=bottom;endArrow=open;dashed=1;endSize=8;rounded=0;fontSize=14;fontColor=#1A1A1A;" parent="1" edge="1">
          <mxGeometry relative="1" as="geometry">
            <mxPoint x="780" y="530" as="sourcePoint" />
            <mxPoint x="141.5" y="530" as="targetPoint" />
          </mxGeometry>
        </mxCell>
        <mxCell id="8xYVwYf3wzO2rZaNu7Fs-48" value="" style="html=1;verticalAlign=bottom;endArrow=block;entryX=0;entryY=0;rounded=0;fontSize=14;fontColor=#1A1A1A;" parent="1" target="8xYVwYf3wzO2rZaNu7Fs-47" edge="1">
          <mxGeometry relative="1" as="geometry">
            <mxPoint x="144" y="615" as="sourcePoint" />
          </mxGeometry>
        </mxCell>
        <mxCell id="8xYVwYf3wzO2rZaNu7Fs-53" value="5.QRID绑定用户信息" style="html=1;verticalAlign=bottom;endArrow=block;rounded=0;fontSize=14;fontColor=#1A1A1A;" parent="1" edge="1">
          <mxGeometry x="0.5611" y="-10" width="80" relative="1" as="geometry">
            <mxPoint x="780.5" y="670" as="sourcePoint" />
            <mxPoint x="600.5" y="670" as="targetPoint" />
            <mxPoint as="offset" />
          </mxGeometry>
        </mxCell>
        <mxCell id="8xYVwYf3wzO2rZaNu7Fs-58" value="4.1 loop&amp;nbsp;&lt;br&gt;timeout&amp;nbsp;" style="shape=umlFrame;whiteSpace=wrap;html=1;fontSize=14;fontColor=#1A1A1A;" parent="1" vertex="1">
          <mxGeometry x="360" y="122" width="240" height="100" as="geometry" />
        </mxCell>
        <mxCell id="8xYVwYf3wzO2rZaNu7Fs-59" value="用户是否确认登录(QRID)" style="html=1;verticalAlign=bottom;endArrow=block;rounded=0;fontSize=14;fontColor=#1A1A1A;" parent="1" edge="1">
          <mxGeometry width="80" relative="1" as="geometry">
            <mxPoint x="360" y="190.5" as="sourcePoint" />
            <mxPoint x="590" y="191" as="targetPoint" />
          </mxGeometry>
        </mxCell>
        <mxCell id="spcbuX4xW0JJ_jfzzLsI-1" value="&lt;span style=&quot;background-color: rgb(255 , 255 , 255)&quot;&gt;&lt;font color=&quot;#ff3333&quot;&gt;二.手机扫描二维码&lt;/font&gt;&lt;/span&gt;" style="text;html=1;align=center;verticalAlign=middle;resizable=0;points=[];autosize=1;strokeColor=none;fillColor=none;fontSize=14;fontColor=#1A1A1A;" vertex="1" parent="1">
          <mxGeometry x="162" y="270" width="130" height="20" as="geometry" />
        </mxCell>
        <mxCell id="spcbuX4xW0JJ_jfzzLsI-3" value="&lt;span style=&quot;background-color: rgb(255 , 255 , 255)&quot;&gt;&lt;font color=&quot;#ff3333&quot;&gt;一.浏览器获取二维码&lt;/font&gt;&lt;/span&gt;" style="text;html=1;align=center;verticalAlign=middle;resizable=0;points=[];autosize=1;strokeColor=none;fillColor=none;fontSize=14;fontColor=#1A1A1A;" vertex="1" parent="1">
          <mxGeometry x="159" y="-173" width="150" height="20" as="geometry" />
        </mxCell>
        <mxCell id="spcbuX4xW0JJ_jfzzLsI-4" value="&lt;span style=&quot;background-color: rgb(255 , 255 , 255)&quot;&gt;&lt;font color=&quot;#ff3333&quot;&gt;三.确认登录操作&lt;/font&gt;&lt;/span&gt;" style="text;html=1;align=center;verticalAlign=middle;resizable=0;points=[];autosize=1;strokeColor=none;fillColor=none;fontSize=14;fontColor=#1A1A1A;" vertex="1" parent="1">
          <mxGeometry x="167" y="590" width="120" height="20" as="geometry" />
        </mxCell>
      </root>
    </mxGraphModel>
  </diagram>
</mxfile>
